<svg width="31" height="31" viewBox="0 0 31 31" fill="none" xmlns="http://www.w3.org/2000/svg">
<circle cx="15.5" cy="15.5" r="15.25" stroke="#80233A" stroke-width="0.5"/>
<path d="M21.4366 9.98786C20.955 9.36789 20.2561 8.96189 19.4699 8.84179C19.1272 8.78975 18.7822 8.79184 18.4372 8.84974C17.6711 7.83174 16.4794 7.21777 15.2116 7.21777C13.9459 7.21777 12.7542 7.83174 11.9859 8.84974C11.6409 8.7917 11.2961 8.78975 10.9533 8.84179C10.1671 8.96176 9.46815 9.36982 8.98659 9.98786C8.39971 10.7398 8.18471 11.7359 8.39299 12.7199C8.69986 14.1639 9.84675 15.2638 11.1886 15.5539C11.1864 15.5639 11.1841 15.5759 11.1841 15.5879V20.5818C11.1841 20.6058 11.1886 20.6298 11.1997 20.6498C11.1908 20.6817 11.1841 20.7138 11.1841 20.7477C11.1841 21.0656 11.6165 21.3036 12.508 21.4777C13.2696 21.6277 14.2821 21.7097 15.3529 21.7097C16.4258 21.7097 17.436 21.6277 18.1977 21.4777C19.0893 21.3038 19.5216 21.0637 19.5216 20.7477C19.5216 20.7137 19.5171 20.6817 19.506 20.6498C19.5149 20.6277 19.5216 20.6058 19.5216 20.5818L19.5213 15.5879C19.5213 15.5519 19.5079 15.5159 19.4877 15.4879C20.7152 15.1198 21.7389 14.0699 22.0257 12.7199C22.2385 11.7359 22.0211 10.7398 21.4366 9.98787L21.4366 9.98786ZM18.0407 21.1279C17.3149 21.2619 16.3607 21.3378 15.3549 21.3378C14.3491 21.3378 13.3949 21.2639 12.6691 21.1279C11.8537 20.9758 11.623 20.8018 11.6028 20.7498C11.623 20.6978 11.8538 20.5218 12.6691 20.3717C13.3949 20.2376 14.3491 20.1618 15.3549 20.1618C16.3607 20.1618 17.3149 20.2357 18.0407 20.3717C18.856 20.5238 19.0867 20.6977 19.1069 20.7498C19.0867 20.8018 18.8561 20.9758 18.0407 21.1279ZM19.1069 15.5879V20.2857C18.8896 20.1837 18.5894 20.0957 18.1997 20.0197C17.4381 19.8697 16.4256 19.7877 15.3549 19.7877C14.2819 19.7877 13.2717 19.8697 12.51 20.0197C12.1225 20.0957 11.8202 20.1837 11.6028 20.2857L11.603 15.6179C11.6992 15.6258 11.7956 15.6318 11.8919 15.6318C12.0531 15.6318 12.2167 15.6198 12.3802 15.5958C12.7564 15.5378 13.1127 15.4158 13.4375 15.2319C13.9819 15.5018 14.5866 15.6498 15.2094 15.6498C15.8344 15.6498 16.4369 15.5038 16.9813 15.2319C17.3061 15.4159 17.6622 15.5378 18.0387 15.5958C18.2022 15.6198 18.3657 15.6318 18.5269 15.6318C18.7218 15.6318 18.9144 15.6138 19.1049 15.5798C19.1093 15.5819 19.1069 15.5858 19.1069 15.5879L19.1069 15.5879ZM21.618 12.6498C21.2663 14.3118 19.6916 15.4658 18.1123 15.2258C17.8547 15.1858 17.6106 15.1118 17.3799 15.0039C17.3888 14.9979 17.3955 14.9919 17.4046 14.9878C17.4292 14.9718 17.4538 14.9559 17.4785 14.9379C17.4941 14.9259 17.5099 14.9158 17.5277 14.9038C17.5457 14.8918 17.5635 14.8779 17.5814 14.8638C17.6016 14.8478 17.6217 14.8338 17.6419 14.8178C17.6553 14.8077 17.6666 14.7998 17.6777 14.7897C17.7024 14.7698 17.7269 14.7518 17.7494 14.7317C17.7561 14.7257 17.7628 14.7197 17.7696 14.7137C17.7986 14.6897 17.8255 14.6657 17.8524 14.6417L17.8546 14.6397C18.1055 14.4197 18.3272 14.1697 18.5199 13.8917C18.5266 13.8838 18.5311 13.8737 18.5378 13.8658C18.5535 13.8437 18.5693 13.8197 18.5827 13.7978C18.5894 13.7878 18.5961 13.7758 18.605 13.7659C18.605 13.7639 18.6072 13.7639 18.6072 13.7618C18.6924 13.6299 18.7685 13.4938 18.8402 13.3518C18.8872 13.2578 18.8402 13.1479 18.7327 13.1059C18.6274 13.0639 18.5043 13.1059 18.4572 13.2019C18.1324 13.8559 17.6217 14.4099 17.0124 14.7739C16.9968 14.7818 16.9833 14.7919 16.9675 14.7998C16.9474 14.8118 16.9272 14.8238 16.9071 14.8338C16.3896 15.1179 15.8094 15.2738 15.2069 15.2738C14.6044 15.2738 14.0219 15.1179 13.5068 14.8338C13.4866 14.8238 13.4686 14.8118 13.4485 14.7998C13.4328 14.7898 13.4171 14.7818 13.4014 14.7718C12.7922 14.4078 12.2814 13.8538 11.9566 13.1998C11.9096 13.1057 11.7863 13.0637 11.6811 13.1038C11.5758 13.1458 11.5288 13.2558 11.5736 13.3497C11.643 13.4918 11.7214 13.6278 11.8066 13.7597C11.8066 13.7617 11.8066 13.7617 11.8088 13.7638C11.8155 13.7738 11.8222 13.7858 11.8289 13.7957C11.8446 13.8197 11.8603 13.8418 11.876 13.8637C11.8827 13.8716 11.8872 13.8817 11.8939 13.8896C12.0866 14.1677 12.3105 14.4177 12.5615 14.6396C12.5905 14.6636 12.6174 14.6876 12.6466 14.7116C12.6533 14.7176 12.6601 14.7216 12.6646 14.7276C12.6893 14.7476 12.7138 14.7677 12.7385 14.7876C12.7497 14.7977 12.7608 14.8056 12.7743 14.8157C12.7944 14.8317 12.8168 14.8476 12.8369 14.8637C12.8549 14.8757 12.8705 14.8896 12.8885 14.9016C12.9065 14.9136 12.9221 14.9256 12.9401 14.9376C12.9647 14.9537 12.9871 14.9696 13.0118 14.9856C13.0207 14.9916 13.0298 14.9976 13.0387 15.0036C12.8079 15.1116 12.5638 15.1857 12.3062 15.2256C10.727 15.4655 9.15226 14.3115 8.80054 12.6495C8.61241 11.7635 8.80507 10.8715 9.32694 10.1995C9.7435 9.66345 10.3461 9.31149 11.0204 9.20741C11.2601 9.17142 11.5043 9.16542 11.7483 9.19346C11.7215 9.23546 11.6968 9.2794 11.6722 9.32153C11.6207 9.41347 11.6633 9.52549 11.7663 9.57153C11.8693 9.61757 11.9947 9.57948 12.0463 9.48755C12.7025 8.31554 13.9144 7.58758 15.2069 7.58758C16.4995 7.58758 17.7113 8.31554 18.3676 9.48755C18.4034 9.55353 18.4773 9.59148 18.5557 9.59148C18.5871 9.59148 18.6184 9.58548 18.6498 9.57153C18.7527 9.52549 18.7954 9.41347 18.7438 9.32153C18.7192 9.27759 18.6946 9.2356 18.6677 9.19346C18.912 9.16751 19.1538 9.17142 19.3957 9.20741C20.0699 9.3094 20.6726 9.66349 21.0891 10.1995C21.6159 10.8719 21.8062 11.7658 21.6181 12.6498L21.618 12.6498Z" fill="#80233A"/>
</svg>
