<svg width="92" height="64" viewBox="0 0 92 64" fill="none" xmlns="http://www.w3.org/2000/svg">
<path fill-rule="evenodd" clip-rule="evenodd" d="M24.7086 21.2269C23.9211 22.1647 22.6611 22.9043 21.4011 22.7987C21.2436 21.5307 21.8605 20.1834 22.5823 19.3513C23.3698 18.3871 24.7479 17.7003 25.8636 17.6475C25.9948 18.9683 25.4829 20.2627 24.7086 21.2269ZM25.8506 23.0497C24.7406 22.9854 23.7278 23.3857 22.9096 23.709C22.3832 23.917 21.9373 24.0932 21.5982 24.0932C21.2175 24.0932 20.7533 23.9076 20.2321 23.6992C19.5491 23.4262 18.7683 23.114 17.9494 23.129C16.0726 23.1554 14.3269 24.2253 13.3688 25.9291C11.4001 29.3368 12.8569 34.3824 14.7601 37.1561C15.6919 38.5298 16.8076 40.0355 18.2775 39.9827C18.9243 39.9581 19.3895 39.7595 19.8709 39.5539C20.4252 39.3172 21.001 39.0713 21.9 39.0713C22.7679 39.0713 23.3185 39.3108 23.8471 39.5407C24.3497 39.7592 24.8323 39.9691 25.5488 39.9563C27.0713 39.9298 28.0294 38.5826 28.9613 37.2089C29.9669 35.7347 30.4088 34.2958 30.4759 34.0774L30.4838 34.0522C30.4821 34.0506 30.4697 34.0448 30.4478 34.0347C30.1116 33.8799 27.5422 32.6961 27.5175 29.5218C27.4928 26.8574 29.5555 25.5074 29.8803 25.2949C29.9 25.282 29.9134 25.2733 29.9194 25.2687C28.6069 23.3139 26.5594 23.1026 25.8506 23.0497ZM36.3896 39.8106V19.219H44.0677C48.0315 19.219 50.8008 21.9663 50.8008 25.9816C50.8008 29.9969 47.979 32.7706 43.9627 32.7706H39.5659V39.8106H36.3896ZM39.5665 21.9136H43.2284C45.9846 21.9136 47.5596 23.3929 47.5596 25.9949C47.5596 28.597 45.9846 30.0895 43.2153 30.0895H39.5665V21.9136ZM61.288 37.3411C60.448 38.9525 58.5974 39.9695 56.6024 39.9695C53.6493 39.9695 51.5887 38.1996 51.5887 35.5316C51.5887 32.8899 53.5837 31.371 57.2718 31.1464L61.2355 30.9087V29.7728C61.2355 28.0953 60.1461 27.184 58.2037 27.184C56.6024 27.184 55.4343 28.0161 55.198 29.2841H52.3368C52.4287 26.616 54.9224 24.6744 58.2955 24.6744C61.9311 24.6744 64.2936 26.5896 64.2936 29.5615V39.811H61.3536V37.3411H61.288ZM57.4554 37.5259C55.7623 37.5259 54.6861 36.707 54.6861 35.4522C54.6861 34.1578 55.7229 33.4049 57.7048 33.286L61.2354 33.0615V34.2238C61.2354 36.1522 59.6079 37.5259 57.4554 37.5259ZM74.0452 40.6167C72.7721 44.2225 71.3152 45.4112 68.2178 45.4112C67.9815 45.4112 67.194 45.3848 67.0103 45.332V42.8621C67.2071 42.8885 67.6928 42.9149 67.9421 42.9149C69.3465 42.9149 70.134 42.3205 70.6196 40.7752L70.9084 39.8638L65.5271 24.8725H68.8478L72.5884 37.0372H72.654L76.3946 24.8725H79.6233L74.0452 40.6167Z" fill="black"/>
</svg>
