<svg width="21" height="21" viewBox="0 0 21 21" fill="none" xmlns="http://www.w3.org/2000/svg">
<path d="M10.4989 5.29911C9.11921 5.29911 7.79606 5.84718 6.8205 6.82275C5.84493 7.79831 5.29687 9.12146 5.29687 10.5011C5.29687 11.8808 5.84493 13.2039 6.8205 14.1795C7.79606 15.155 9.11921 15.7031 10.4989 15.7031C11.8785 15.7031 13.2017 15.155 14.1772 14.1795C15.1528 13.2039 15.7009 11.8808 15.7009 10.5011C15.7009 9.12146 15.1528 7.79831 14.1772 6.82275C13.2017 5.84718 11.8785 5.29911 10.4989 5.29911ZM10.4989 13.8795C9.60257 13.8795 8.74298 13.5234 8.1092 12.8897C7.47542 12.2559 7.11937 11.3963 7.11937 10.5C7.11937 9.60369 7.47542 8.7441 8.1092 8.11032C8.74298 7.47654 9.60257 7.12049 10.4989 7.12049C11.3952 7.12049 12.2548 7.47654 12.8885 8.11032C13.5223 8.7441 13.8784 9.60369 13.8784 10.5C13.8784 11.3963 13.5223 12.2559 12.8885 12.8897C12.2548 13.5234 11.3952 13.8795 10.4989 13.8795Z" fill="black"/>
<path d="M15.9067 6.32061C16.5765 6.32061 17.1195 5.77765 17.1195 5.10786C17.1195 4.43808 16.5765 3.89512 15.9067 3.89512C15.237 3.89512 14.694 4.43808 14.694 5.10786C14.694 5.77765 15.237 6.32061 15.9067 6.32061Z" fill="black"/>
<path d="M20.0996 3.87487C19.8392 3.20232 19.4412 2.59156 18.9311 2.08168C18.421 1.5718 17.8101 1.17405 17.1375 0.913865C16.3504 0.618392 15.5188 0.458624 14.6782 0.441365C13.5949 0.394115 13.2517 0.380615 10.5045 0.380615C7.75724 0.380615 7.40512 0.380615 6.33074 0.441365C5.49081 0.457742 4.65984 0.617542 3.87374 0.913865C3.20092 1.17374 2.58985 1.57139 2.07974 2.08131C1.56963 2.59122 1.17175 3.20214 0.911618 3.87487C0.616086 4.66193 0.456684 5.49356 0.440243 6.33412C0.391868 7.41637 0.377243 7.75949 0.377243 10.5079C0.377243 13.2551 0.377243 13.605 0.440243 14.6816C0.457118 15.5231 0.615743 16.3534 0.911618 17.142C1.17248 17.8145 1.57075 18.4251 2.08098 18.935C2.59122 19.4448 3.20219 19.8426 3.87487 20.103C4.65948 20.4103 5.49079 20.5815 6.33299 20.6092C7.41637 20.6565 7.75949 20.6711 10.5067 20.6711C13.254 20.6711 13.6061 20.6711 14.6805 20.6092C15.521 20.5921 16.3525 20.4328 17.1397 20.1379C17.8122 19.8771 18.4229 19.479 18.933 18.969C19.443 18.4589 19.8411 17.8482 20.1019 17.1757C20.3977 16.3882 20.5564 15.558 20.5732 14.7165C20.6216 13.6342 20.6362 13.2911 20.6362 10.5427C20.6362 7.79436 20.6362 7.44561 20.5732 6.36899C20.5601 5.51655 20.3999 4.67277 20.0996 3.87487ZM18.7294 14.5984C18.7221 15.2467 18.6038 15.889 18.3795 16.4974C18.2105 16.9348 17.9519 17.3321 17.6202 17.6636C17.2885 17.9951 16.8911 18.2535 16.4535 18.4222C15.8519 18.6455 15.2164 18.7638 14.5747 18.7721C13.506 18.8216 13.2045 18.834 10.464 18.834C7.72124 18.834 7.44112 18.834 6.35212 18.7721C5.71079 18.7643 5.07561 18.6459 4.47449 18.4222C4.03539 18.2546 3.63637 17.9966 3.30324 17.6651C2.97012 17.3335 2.71031 16.9357 2.54062 16.4974C2.3195 15.8955 2.20122 15.2608 2.19074 14.6197C2.14237 13.551 2.13112 13.2495 2.13112 10.509C2.13112 7.76737 2.13112 7.48724 2.19074 6.39711C2.19801 5.74914 2.31636 5.10721 2.54062 4.49924C2.88374 3.61161 3.58687 2.91299 4.47449 2.57324C5.07591 2.35065 5.7109 2.23232 6.35212 2.22337C7.42199 2.17499 7.72237 2.16149 10.464 2.16149C13.2056 2.16149 13.4869 2.16149 14.5747 2.22337C15.2165 2.23108 15.852 2.34945 16.4535 2.57324C16.891 2.7423 17.2884 3.00097 17.6201 3.33265C17.9518 3.66433 18.2104 4.0617 18.3795 4.49924C18.6006 5.10106 18.7189 5.7358 18.7294 6.37687C18.7777 7.44674 18.7901 7.74711 18.7901 10.4887C18.7901 13.2292 18.7901 13.524 18.7417 14.5995H18.7294V14.5984Z" fill="black"/>
</svg>
