<svg width="92" height="63" viewBox="0 0 92 63" fill="none" xmlns="http://www.w3.org/2000/svg">
<path d="M54.6304 45.4963H38.3019V16.5054H54.6304V45.4963Z" fill="#FF5F00"/>
<path d="M39.3479 30.9985C39.3479 25.1175 42.1351 19.8789 46.4754 16.503C43.3014 14.0343 39.2957 12.5609 34.9423 12.5609C24.6362 12.5609 16.2819 20.8155 16.2819 30.9985C16.2819 41.1814 24.6362 49.436 34.9423 49.436C39.2957 49.436 43.3014 47.9626 46.4754 45.4939C42.1351 42.118 39.3479 36.8794 39.3479 30.9985" fill="#EB001B"/>
<path d="M76.6525 30.9985C76.6525 41.1814 68.2981 49.436 57.992 49.436C53.6386 49.436 49.6329 47.9626 46.4578 45.4939C50.7993 42.118 53.5864 36.8794 53.5864 30.9985C53.5864 25.1175 50.7993 19.8789 46.4578 16.503C49.6329 14.0343 53.6386 12.5609 57.992 12.5609C68.2981 12.5609 76.6525 20.8155 76.6525 30.9985" fill="#F79E1B"/>
</svg>
