<svg width="296" height="229" viewBox="0 0 296 229" fill="none" xmlns="http://www.w3.org/2000/svg">
<g clip-path="url(#clip0_1_461)">
<path d="M145.576 228.166L136.531 214.495L154.85 215.194L145.576 228.166Z" fill="white"/>
<g filter="url(#filter0_d_1_461)">
<rect width="296" height="219" fill="white"/>
</g>
<path d="M267.041 181.219V187.356C267.041 189.219 266.7 191.208 266.018 193.322C265.359 195.413 264.381 197.447 263.086 199.424C261.813 201.379 260.268 203.083 258.45 204.538L254.086 200.992C255.518 198.947 256.756 196.822 257.802 194.617C258.87 192.39 259.404 190.015 259.404 187.492V181.219H267.041ZM284.495 181.219V187.356C284.495 189.219 284.154 191.208 283.472 193.322C282.813 195.413 281.836 197.447 280.541 199.424C279.268 201.379 277.722 203.083 275.904 204.538L271.541 200.992C272.972 198.947 274.211 196.822 275.256 194.617C276.325 192.39 276.859 190.015 276.859 187.492V181.219H284.495Z" fill="#F4F2F2"/>
<path d="M10.6692 36V29.8636C10.6692 28 10.9987 26.0227 11.6578 23.9318C12.3396 21.8182 13.3169 19.7841 14.5896 17.8295C15.8851 15.8523 17.4419 14.1364 19.2601 12.6818L23.6237 16.2273C22.1919 18.2727 20.9419 20.4091 19.8737 22.6364C18.8283 24.8409 18.3055 27.2045 18.3055 29.7273V36H10.6692ZM28.1237 36V29.8636C28.1237 28 28.4533 26.0227 29.1124 23.9318C29.7942 21.8182 30.7714 19.7841 32.0442 17.8295C33.3396 15.8523 34.8964 14.1364 36.7146 12.6818L41.0783 16.2273C39.6464 18.2727 38.3964 20.4091 37.3283 22.6364C36.2828 24.8409 35.7601 27.2045 35.7601 29.7273V36H28.1237Z" fill="#F4F2F2"/>
</g>
<defs>
<filter id="filter0_d_1_461" x="-30" y="-26" width="356" height="279" filterUnits="userSpaceOnUse" color-interpolation-filters="sRGB">
<feFlood flood-opacity="0" result="BackgroundImageFix"/>
<feColorMatrix in="SourceAlpha" type="matrix" values="0 0 0 0 0 0 0 0 0 0 0 0 0 0 0 0 0 0 127 0" result="hardAlpha"/>
<feOffset dy="4"/>
<feGaussianBlur stdDeviation="15"/>
<feComposite in2="hardAlpha" operator="out"/>
<feColorMatrix type="matrix" values="0 0 0 0 0 0 0 0 0 0 0 0 0 0 0 0 0 0 0.05 0"/>
<feBlend mode="normal" in2="BackgroundImageFix" result="effect1_dropShadow_1_461"/>
<feBlend mode="normal" in="SourceGraphic" in2="effect1_dropShadow_1_461" result="shape"/>
</filter>
<clipPath id="clip0_1_461">
<rect width="296" height="229" fill="white"/>
</clipPath>
</defs>
</svg>
