<svg width="592" height="271" viewBox="0 0 592 271" fill="none" xmlns="http://www.w3.org/2000/svg">
<g clip-path="url(#clip0_8_437)">
<g filter="url(#filter0_d_8_437)">
<rect width="659" height="271" fill="white"/>
</g>
<path d="M25.6799 71V61.4119C25.6799 58.5 26.1948 55.4105 27.2246 52.1435C28.29 48.8409 29.8169 45.6626 31.8056 42.6087C33.8297 39.5192 36.2623 36.8381 39.1032 34.5653L45.9213 40.1051C43.6841 43.3011 41.731 46.6392 40.062 50.1193C38.4284 53.5639 37.6117 57.2571 37.6117 61.1989V71H25.6799ZM52.9526 71V61.4119C52.9526 58.5 53.4675 55.4105 54.4973 52.1435C55.5627 48.8409 57.0897 45.6626 59.0783 42.6087C61.1025 39.5192 63.535 36.8381 66.3759 34.5653L73.1941 40.1051C70.9569 43.3011 69.0037 46.6392 67.3347 50.1193C65.7012 53.5639 64.8844 57.2571 64.8844 61.1989V71H52.9526Z" fill="#F4F2F2"/>
</g>
<defs>
<filter id="filter0_d_8_437" x="-30" y="-26" width="719" height="331" filterUnits="userSpaceOnUse" color-interpolation-filters="sRGB">
<feFlood flood-opacity="0" result="BackgroundImageFix"/>
<feColorMatrix in="SourceAlpha" type="matrix" values="0 0 0 0 0 0 0 0 0 0 0 0 0 0 0 0 0 0 127 0" result="hardAlpha"/>
<feOffset dy="4"/>
<feGaussianBlur stdDeviation="15"/>
<feComposite in2="hardAlpha" operator="out"/>
<feColorMatrix type="matrix" values="0 0 0 0 0 0 0 0 0 0 0 0 0 0 0 0 0 0 0.05 0"/>
<feBlend mode="normal" in2="BackgroundImageFix" result="effect1_dropShadow_8_437"/>
<feBlend mode="normal" in="SourceGraphic" in2="effect1_dropShadow_8_437" result="shape"/>
</filter>
<clipPath id="clip0_8_437">
<rect width="592" height="271" fill="white"/>
</clipPath>
</defs>
</svg>
