<svg width="599" height="271" viewBox="0 0 599 271" fill="none" xmlns="http://www.w3.org/2000/svg">
<g clip-path="url(#clip0_8_436)">
<g filter="url(#filter0_d_8_436)">
<rect x="-60" width="659" height="271" fill="white"/>
</g>
<path d="M544.021 192.909V202.497C544.021 205.409 543.488 208.516 542.423 211.819C541.393 215.086 539.866 218.264 537.842 221.354C535.853 224.408 533.438 227.071 530.597 229.344L523.779 223.804C526.017 220.608 527.952 217.288 529.585 213.843C531.254 210.363 532.089 206.652 532.089 202.71V192.909H544.021ZM571.294 192.909V202.497C571.294 205.409 570.761 208.516 569.695 211.819C568.666 215.086 567.139 218.264 565.115 221.354C563.126 224.408 560.711 227.071 557.87 229.344L551.052 223.804C553.289 220.608 555.225 217.288 556.858 213.843C558.527 210.363 559.362 206.652 559.362 202.71V192.909H571.294Z" fill="#F4F2F2"/>
</g>
<defs>
<filter id="filter0_d_8_436" x="-90" y="-26" width="719" height="331" filterUnits="userSpaceOnUse" color-interpolation-filters="sRGB">
<feFlood flood-opacity="0" result="BackgroundImageFix"/>
<feColorMatrix in="SourceAlpha" type="matrix" values="0 0 0 0 0 0 0 0 0 0 0 0 0 0 0 0 0 0 127 0" result="hardAlpha"/>
<feOffset dy="4"/>
<feGaussianBlur stdDeviation="15"/>
<feComposite in2="hardAlpha" operator="out"/>
<feColorMatrix type="matrix" values="0 0 0 0 0 0 0 0 0 0 0 0 0 0 0 0 0 0 0.05 0"/>
<feBlend mode="normal" in2="BackgroundImageFix" result="effect1_dropShadow_8_436"/>
<feBlend mode="normal" in="SourceGraphic" in2="effect1_dropShadow_8_436" result="shape"/>
</filter>
<clipPath id="clip0_8_436">
<rect width="599" height="271" fill="white"/>
</clipPath>
</defs>
</svg>
