<svg width="45" height="45" viewBox="0 0 45 45" fill="none" xmlns="http://www.w3.org/2000/svg">
<circle cx="22.5" cy="22.5" r="22.5" fill="#F4F2F2"/>
<path d="M22.5 11.4375C23.4531 11.4375 24.3672 11.8161 25.0412 12.4901C25.7151 13.164 26.0938 14.0781 26.0938 15.0312V15.75H18.9062V15.0312C18.9062 14.0781 19.2849 13.164 19.9588 12.4901C20.6328 11.8161 21.5469 11.4375 22.5 11.4375ZM27.5312 15.75V15.0312C27.5312 13.6969 27.0012 12.4172 26.0576 11.4736C25.1141 10.5301 23.8344 10 22.5 10C21.1656 10 19.8859 10.5301 18.9424 11.4736C17.9988 12.4172 17.4688 13.6969 17.4688 15.0312V15.75H12.4375V30.125C12.4375 30.8875 12.7404 31.6188 13.2796 32.1579C13.8187 32.6971 14.55 33 15.3125 33H29.6875C30.45 33 31.1813 32.6971 31.7204 32.1579C32.2596 31.6188 32.5625 30.8875 32.5625 30.125V15.75H27.5312ZM13.875 17.1875H31.125V30.125C31.125 30.5062 30.9735 30.8719 30.704 31.1415C30.4344 31.411 30.0687 31.5625 29.6875 31.5625H15.3125C14.9313 31.5625 14.5656 31.411 14.296 31.1415C14.0265 30.8719 13.875 30.5062 13.875 30.125V17.1875Z" fill="#80233A"/>
<path d="M13.875 17.1875H31.125V30.125C31.125 30.5062 30.9735 30.8719 30.704 31.1415C30.4344 31.411 30.0687 31.5625 29.6875 31.5625H15.3125C14.9313 31.5625 14.5656 31.411 14.296 31.1415C14.0265 30.8719 13.875 30.5062 13.875 30.125V17.1875Z" fill="#80233A"/>
</svg>
