<svg width="22" height="17" viewBox="0 0 22 17" fill="none" xmlns="http://www.w3.org/2000/svg">
<path d="M1.62791 2.87494L20.3711 2.87494C20.7159 2.87494 20.9957 2.45491 20.9955 1.93747C20.9952 1.41995 20.7152 1 20.3703 1L1.62718 1C1.28229 1 1.00259 1.42003 1.00279 1.93747C1.00299 2.45491 1.28307 2.87494 1.62791 2.87494Z" fill="#80233A" stroke="white" stroke-width="0.2"/>
<path d="M20.3706 7.5625L1.6275 7.5625C1.28261 7.5625 1.00291 7.98253 1.00311 8.49997C1.00331 9.0174 1.28339 9.43743 1.62823 9.43743L20.3714 9.43743C20.7163 9.43743 20.996 9.01741 20.9958 8.49997C20.9956 7.98253 20.7155 7.5625 20.3706 7.5625Z" fill="#80233A" stroke="white" stroke-width="0.2"/>
<path d="M20.3704 14.125L7.87516 14.125C7.53028 14.125 7.25057 14.545 7.25076 15.0625C7.25095 15.58 7.53102 15.9999 7.87585 15.9999L20.3711 15.9999C20.716 15.9999 20.9957 15.5799 20.9955 15.0625C20.9953 14.545 20.7153 14.125 20.3704 14.125Z" fill="#80233A" stroke="white" stroke-width="0.2"/>
</svg>
