<svg width="14" height="15" viewBox="0 0 14 15" fill="none" xmlns="http://www.w3.org/2000/svg">
<path d="M13.8614 14.1494L10.0462 10.131C12.0491 7.91716 12.1604 4.4389 10.2067 2.08992C9.10271 0.761845 7.49845 0 5.80522 0C4.41506 9.15506e-05 3.06908 0.518436 2.01521 1.45957C-0.411513 3.626 -0.685351 7.43315 1.40496 9.94629C2.50998 11.2748 4.11495 12.0368 5.80841 12.0368C7.08262 12.0368 8.31737 11.5965 9.32718 10.7986C9.328 10.7995 9.32824 10.8008 9.32918 10.8017L13.1733 14.8506C13.2675 14.9502 13.3924 15 13.5173 15C13.6394 15 13.762 14.9521 13.8558 14.8564C14.0457 14.6626 14.0485 14.3462 13.8614 14.1494ZM5.80841 11.0367C4.44723 11.0367 3.09453 10.4457 2.13622 9.29351C0.390206 7.19429 0.617855 4.02709 2.64536 2.21702C3.56008 1.40025 4.68536 1.0001 5.80499 1.00001C7.16558 0.999945 8.51792 1.59074 9.47541 2.74269C11.222 4.8425 10.9948 8.01027 8.96862 9.81976C8.05331 10.6366 6.92803 11.0367 5.80841 11.0367Z" fill="#80233A"/>
</svg>
