<svg width="28" height="17" viewBox="0 0 28 17" fill="none" xmlns="http://www.w3.org/2000/svg">
<path fill-rule="evenodd" clip-rule="evenodd" d="M20.8115 5.89551C20.6379 5.89573 20.4974 6.03624 20.4974 6.20985V9.26976C20.4974 9.44315 20.6379 9.58389 20.8115 9.58389H25.1327C25.2504 9.58389 25.3581 9.51834 25.412 9.41378C25.4659 9.30922 25.4569 9.18339 25.389 9.0876L23.2125 6.0277C23.1535 5.94483 23.0582 5.89551 22.9564 5.89551L20.8115 5.89551ZM21.1258 6.52396H22.7942L24.5235 8.95519H21.1255V6.52396H21.1258Z" fill="#80233A"/>
<mask id="path-2-inside-1_3_64" fill="white">
<path fill-rule="evenodd" clip-rule="evenodd" d="M2.00751 0C1.0827 0 0.324219 0.758481 0.324219 1.68329V12.5914C0.324219 13.5162 1.0827 14.2747 2.00751 14.2747H4.20641C4.41663 15.4391 5.4379 16.3282 6.66305 16.3282C7.88753 16.3282 8.90993 15.4395 9.12037 14.2747H20.6076C20.818 15.4393 21.8412 16.3282 23.0649 16.3282C24.2885 16.3282 25.3118 15.4393 25.5222 14.2747H26.0235C26.7535 14.2747 27.3502 13.6745 27.3502 12.9478V8.9264H27.3504C27.3563 8.88146 27.3522 8.83565 27.3386 8.79247C27.3368 8.78589 27.3349 8.77953 27.3324 8.77318H27.3318C27.3318 8.77318 27.3318 8.77296 27.3316 8.77296C27.3175 8.73306 27.2954 8.69667 27.2667 8.66554L23.8876 3.97689V3.97667C23.8286 3.89491 23.7339 3.84624 23.6329 3.84624L19.2504 3.84339V1.6844C19.2504 0.759584 18.492 0.00110289 17.5672 0.00110289H2.00753L2.00751 0ZM2.00751 0.628457H17.5671C18.15 0.628457 18.622 1.10019 18.622 1.68329V13.6464H9.15331C9.05817 12.3545 7.97614 11.3311 6.66311 11.3311C5.35025 11.3311 4.26803 12.3545 4.17291 13.6464H2.00757C1.42468 13.6464 0.952732 13.1746 0.952732 12.5915V1.68346C0.952732 1.10035 1.42446 0.628625 2.00757 0.628625L2.00751 0.628457ZM19.2507 4.47075L23.472 4.4736L26.7222 8.98312V12.9477C26.7222 13.3315 26.4107 13.6461 26.024 13.6461H25.5556C25.4604 12.3543 24.3782 11.3308 23.0654 11.3308C21.7525 11.3308 20.6703 12.3543 20.5751 13.6461H19.2507L19.2507 4.47075ZM6.66356 11.9596C7.69842 11.9596 8.53209 12.7928 8.53209 13.8314V13.8665C8.51324 14.8847 7.68792 15.6999 6.66356 15.6999C5.62848 15.6999 4.79833 14.8696 4.79502 13.8375V13.8322C4.79502 12.7936 5.62864 11.9605 6.66356 11.9605V11.9596ZM23.0655 11.9596C24.1004 11.9596 24.934 12.7928 24.934 13.8314C24.934 14.8665 24.1004 15.6999 23.0655 15.6999C22.0306 15.6999 21.197 14.8663 21.197 13.8314C21.197 12.7928 22.0306 11.9596 23.0655 11.9596Z"/>
</mask>
<path fill-rule="evenodd" clip-rule="evenodd" d="M2.00751 0C1.0827 0 0.324219 0.758481 0.324219 1.68329V12.5914C0.324219 13.5162 1.0827 14.2747 2.00751 14.2747H4.20641C4.41663 15.4391 5.4379 16.3282 6.66305 16.3282C7.88753 16.3282 8.90993 15.4395 9.12037 14.2747H20.6076C20.818 15.4393 21.8412 16.3282 23.0649 16.3282C24.2885 16.3282 25.3118 15.4393 25.5222 14.2747H26.0235C26.7535 14.2747 27.3502 13.6745 27.3502 12.9478V8.9264H27.3504C27.3563 8.88146 27.3522 8.83565 27.3386 8.79247C27.3368 8.78589 27.3349 8.77953 27.3324 8.77318H27.3318C27.3318 8.77318 27.3318 8.77296 27.3316 8.77296C27.3175 8.73306 27.2954 8.69667 27.2667 8.66554L23.8876 3.97689V3.97667C23.8286 3.89491 23.7339 3.84624 23.6329 3.84624L19.2504 3.84339V1.6844C19.2504 0.759584 18.492 0.00110289 17.5672 0.00110289H2.00753L2.00751 0ZM2.00751 0.628457H17.5671C18.15 0.628457 18.622 1.10019 18.622 1.68329V13.6464H9.15331C9.05817 12.3545 7.97614 11.3311 6.66311 11.3311C5.35025 11.3311 4.26803 12.3545 4.17291 13.6464H2.00757C1.42468 13.6464 0.952732 13.1746 0.952732 12.5915V1.68346C0.952732 1.10035 1.42446 0.628625 2.00757 0.628625L2.00751 0.628457ZM19.2507 4.47075L23.472 4.4736L26.7222 8.98312V12.9477C26.7222 13.3315 26.4107 13.6461 26.024 13.6461H25.5556C25.4604 12.3543 24.3782 11.3308 23.0654 11.3308C21.7525 11.3308 20.6703 12.3543 20.5751 13.6461H19.2507L19.2507 4.47075ZM6.66356 11.9596C7.69842 11.9596 8.53209 12.7928 8.53209 13.8314V13.8665C8.51324 14.8847 7.68792 15.6999 6.66356 15.6999C5.62848 15.6999 4.79833 14.8696 4.79502 13.8375V13.8322C4.79502 12.7936 5.62864 11.9605 6.66356 11.9605V11.9596ZM23.0655 11.9596C24.1004 11.9596 24.934 12.7928 24.934 13.8314C24.934 14.8665 24.1004 15.6999 23.0655 15.6999C22.0306 15.6999 21.197 14.8663 21.197 13.8314C21.197 12.7928 22.0306 11.9596 23.0655 11.9596Z" fill="#80233A"/>
<path d="M2.00751 0L101.999 -1.31976L100.696 -100H2.00751V0ZM4.20641 14.2747L102.616 -3.49163L87.7695 -85.7253H4.20641V14.2747ZM9.12037 14.2747V-85.7253H-74.433L-89.2867 -3.50291L9.12037 14.2747ZM20.6076 14.2747L119.014 -3.50622L104.158 -85.7253H20.6076V14.2747ZM25.5222 14.2747V-85.7253H-58.0283L-72.8843 -3.50622L25.5222 14.2747ZM27.3502 8.9264V-91.0736H-72.6498V8.9264H27.3502ZM27.3504 8.9264V108.926H115.043L126.494 21.9845L27.3504 8.9264ZM27.3386 8.79247L-69.285 34.5582L-68.7139 36.7L-68.0485 38.8143L27.3386 8.79247ZM27.3324 8.77318L120.831 -26.6964L96.3503 -91.2268H27.3324V8.77318ZM27.3318 8.77318L-72.6682 8.77953L-72.6619 108.773H27.3318V8.77318ZM27.3316 8.77296L-67.0057 41.9464L-43.5064 108.773H27.3316V8.77296ZM27.2667 8.66554L-53.8599 67.1333L-50.3304 72.0306L-46.2375 76.4677L27.2667 8.66554ZM23.8876 3.97689H-76.1124V36.2569L-57.239 62.4446L23.8876 3.97689ZM23.8876 3.97667H123.888V-28.3219L104.995 -54.5183L23.8876 3.97667ZM23.6329 3.84624L23.5678 103.846L23.6003 103.846H23.6329V3.84624ZM19.2504 3.84339H-80.7496V103.778L19.1854 103.843L19.2504 3.84339ZM2.00753 0.00110289L-97.9838 1.32086L-96.6813 100.001H2.00753V0.00110289ZM2.00751 0.628457V-99.3715H-137.183L-92.7637 32.5412L2.00751 0.628457ZM18.622 13.6464V113.646H118.622V13.6464H18.622ZM9.15331 13.6464L-90.5766 20.9909L-83.753 113.646H9.15331V13.6464ZM4.17291 13.6464V113.646H97.0805L103.903 20.9896L4.17291 13.6464ZM2.00757 0.628625V100.629H141.198L96.7787 -31.2841L2.00757 0.628625ZM19.2507 4.47075L19.3182 -95.5292L-80.7495 -95.5968L-80.7493 4.47093L19.2507 4.47075ZM23.472 4.4736L104.597 -53.9964L74.6895 -95.4919L23.5395 -95.5264L23.472 4.4736ZM26.7222 8.98312H126.722V-23.2985L107.847 -49.4869L26.7222 8.98312ZM25.5556 13.6461L-74.1744 20.9906L-67.3508 113.646H25.5556V13.6461ZM20.5751 13.6461V113.646H113.483L120.305 20.9894L20.5751 13.6461ZM19.2507 13.6461L-80.7493 13.6463L-80.7491 113.646H19.2507V13.6461ZM6.66356 11.9596V-88.0404H-93.3364V11.9596H6.66356ZM8.53209 13.8665L108.515 15.7176L108.532 14.7921V13.8665H8.53209ZM4.79502 13.8375H-95.205V13.9979L-95.2045 14.1583L4.79502 13.8375ZM6.66356 11.9605V111.96H106.664V11.9605H6.66356ZM2.00751 -100C-54.1458 -100 -99.6758 -54.4699 -99.6758 1.68329H100.324C100.324 55.9869 56.3112 100 2.00751 100V-100ZM-99.6758 1.68329V12.5914H100.324V1.68329H-99.6758ZM-99.6758 12.5914C-99.6758 68.7446 -54.1458 114.275 2.00751 114.275V-85.7253C56.3112 -85.7253 100.324 -41.7123 100.324 12.5914H-99.6758ZM2.00751 114.275H4.20641V-85.7253H2.00751V114.275ZM-94.2027 32.0409C-85.5881 79.7584 -43.9997 116.328 6.66305 116.328V-83.6718C54.8755 -83.6718 94.4213 -48.8802 102.616 -3.49163L-94.2027 32.0409ZM6.66305 116.328C57.2735 116.328 98.8995 79.812 107.527 32.0522L-89.2867 -3.50291C-81.0797 -48.933 -41.4985 -83.6718 6.66305 -83.6718V116.328ZM9.12037 114.275H20.6076V-85.7253H9.12037V114.275ZM-77.7989 32.0555C-69.1676 79.8247 -27.5323 116.328 23.0649 116.328V-83.6718C71.2148 -83.6718 110.804 -48.9461 119.014 -3.50622L-77.7989 32.0555ZM23.0649 116.328C73.6621 116.328 115.297 79.8247 123.929 32.0555L-72.8843 -3.50622C-64.6739 -48.9461 -25.0851 -83.6718 23.0649 -83.6718V116.328ZM25.5222 114.275H26.0235V-85.7253H25.5222V114.275ZM26.0235 114.275C82.1633 114.275 127.35 68.7215 127.35 12.9478H-72.6498C-72.6498 -41.3725 -28.6563 -85.7253 26.0235 -85.7253V114.275ZM127.35 12.9478V8.9264H-72.6498V12.9478H127.35ZM27.3502 108.926H27.3504V-91.0736H27.3502V108.926ZM126.494 21.9845C128.437 7.23374 127.044 -7.50849 122.726 -21.2293L-68.0485 38.8143C-72.3398 25.1798 -73.7243 10.5292 -71.7933 -4.13173L126.494 21.9845ZM123.962 -16.9733C123.277 -19.5442 122.278 -22.8818 120.831 -26.6964L-66.1657 44.2427C-67.608 40.4409 -68.603 37.116 -69.285 34.5582L123.962 -16.9733ZM27.3324 -91.2268H27.3318V108.773H27.3324V-91.2268ZM27.3318 8.77318C127.332 8.76685 127.332 8.71838 127.332 8.6699C127.332 8.65346 127.332 8.60474 127.332 8.57225C127.331 8.50718 127.331 8.44181 127.331 8.37621C127.33 8.24498 127.33 8.11271 127.329 7.9794C127.327 7.71283 127.323 7.4419 127.319 7.16673C127.31 6.61672 127.296 6.04793 127.277 5.46136C127.238 4.29122 127.176 3.03341 127.081 1.69756C126.894 -0.940301 126.568 -4.06178 125.991 -7.5478C124.916 -14.0428 122.581 -24.2465 116.912 -35.6726C111.057 -47.4729 100.666 -62.4301 83.1015 -74.2314C64.8723 -86.4794 44.9918 -91.227 27.3316 -91.227V108.773C9.67142 108.773 -10.209 104.025 -28.4381 91.7774C-46.0024 79.9761 -56.3935 65.019 -62.2483 53.2187C-67.9174 41.7927 -70.2529 31.5891 -71.3274 25.0941C-71.904 21.6081 -72.2305 18.4866 -72.4176 15.8488C-72.5123 14.5129 -72.5746 13.2551 -72.6134 12.085C-72.6328 11.4984 -72.6465 10.9296 -72.6553 10.3796C-72.6597 10.1045 -72.6629 9.83353 -72.6651 9.56695C-72.6661 9.43364 -72.6669 9.30137 -72.6674 9.17015C-72.6677 9.10454 -72.6679 9.03917 -72.668 8.97405C-72.6681 8.94162 -72.6681 8.8929 -72.6682 8.87666C-72.6682 8.82798 -72.6682 8.7795 27.3318 8.77318ZM121.669 -24.4005C117.023 -37.6111 109.788 -49.3613 100.771 -59.1366L-46.2375 76.4677C-55.1971 66.7547 -62.3883 55.0772 -67.0057 41.9464L121.669 -24.4005ZM108.393 -49.8022L105.014 -54.4909L-57.239 62.4446L-53.8599 67.1333L108.393 -49.8022ZM123.888 3.97689V3.97667H-76.1124V3.97689H123.888ZM104.995 -54.5183C86.1957 -80.5841 55.9649 -96.1538 23.6329 -96.1538V103.846C-8.49705 103.846 -38.5384 88.3739 -57.2194 62.4716L104.995 -54.5183ZM23.6979 -96.1537L19.3155 -96.1566L19.1854 103.843L23.5678 103.846L23.6979 -96.1537ZM119.25 3.84339V1.6844H-80.7496V3.84339H119.25ZM119.25 1.6844C119.25 -54.4689 73.7205 -99.9989 17.5672 -99.9989V100.001C-36.7365 100.001 -80.7496 55.988 -80.7496 1.6844H119.25ZM17.5672 -99.9989H2.00753V100.001H17.5672V-99.9989ZM101.999 -1.31866L101.999 -1.31976L-97.9838 1.31976L-97.9838 1.32086L101.999 -1.31866ZM2.00751 100.628H17.5671V-99.3715H2.00751V100.628ZM17.5671 100.628C-37.0653 100.628 -81.378 56.3418 -81.378 1.68329H118.622C118.622 -54.1414 73.3653 -99.3715 17.5671 -99.3715V100.628ZM-81.378 1.68329V13.6464H118.622V1.68329H-81.378ZM18.622 -86.3536H9.15331V113.646H18.622V-86.3536ZM108.883 6.30179C104.981 -46.685 60.8975 -88.6689 6.66311 -88.6689V111.331C-44.9452 111.331 -86.8647 71.3941 -90.5766 20.9909L108.883 6.30179ZM6.66311 -88.6689C-47.5657 -88.6689 -91.6551 -46.6902 -95.5571 6.30308L103.903 20.9896C100.191 71.3993 58.2662 111.331 6.66311 111.331V-88.6689ZM4.17291 -86.3536H2.00757V113.646H4.17291V-86.3536ZM2.00757 -86.3536C56.6399 -86.3536 100.953 -42.0671 100.953 12.5915H-99.0473C-99.0473 68.4163 -53.7906 113.646 2.00757 113.646V-86.3536ZM100.953 12.5915V1.68346H-99.0473V12.5915H100.953ZM100.953 1.68346C100.953 56.3296 56.6522 100.629 2.00757 100.629V-99.3714C-53.8033 -99.3714 -99.0473 -54.1289 -99.0473 1.68346H100.953ZM96.7787 -31.2841L96.7787 -31.2843L-92.7637 32.5412L-92.7636 32.5414L96.7787 -31.2841ZM19.1831 104.471L23.4045 104.474L23.5395 -95.5264L19.3182 -95.5292L19.1831 104.471ZM-57.653 62.9436L-54.4028 67.4531L107.847 -49.4869L104.597 -53.9964L-57.653 62.9436ZM-73.2778 8.98312V12.9477H126.722V8.98312H-73.2778ZM-73.2778 12.9477C-73.2778 -41.5909 -29.1234 -86.3539 26.024 -86.3539V113.646C81.9447 113.646 126.722 68.2539 126.722 12.9477H-73.2778ZM26.024 -86.3539H25.5556V113.646H26.024V-86.3539ZM125.285 6.3015C121.383 -46.6896 77.2953 -88.6692 23.0654 -88.6692V111.331C-28.5388 111.331 -70.4621 71.3981 -74.1744 20.9906L125.285 6.3015ZM23.0654 -88.6692C-31.1635 -88.6692 -75.2529 -46.6905 -79.1549 6.30279L120.305 20.9894C116.593 71.399 74.6684 111.331 23.0654 111.331V-88.6692ZM20.5751 -86.3539H19.2507V113.646H20.5751V-86.3539ZM119.251 13.6459L119.251 4.47056L-80.7493 4.47093L-80.7493 13.6463L119.251 13.6459ZM6.66356 111.96C-47.6279 111.96 -91.4679 67.9234 -91.4679 13.8314H108.532C108.532 -42.3377 63.0247 -88.0404 6.66356 -88.0404V111.96ZM-91.4679 13.8314V13.8665H108.532V13.8314H-91.4679ZM-91.4508 12.0154C-90.4634 -41.3144 -46.9684 -84.3001 6.66356 -84.3001V115.7C62.3443 115.7 107.49 71.0838 108.515 15.7176L-91.4508 12.0154ZM6.66356 -84.3001C60.8281 -84.3001 104.621 -40.4578 104.795 13.5167L-95.2045 14.1583C-95.0247 70.1969 -49.5711 115.7 6.66356 115.7V-84.3001ZM104.795 13.8375V13.8322H-95.205V13.8375H104.795ZM104.795 13.8322C104.795 67.9243 60.9549 111.96 6.66356 111.96V-88.0396C-49.6976 -88.0396 -95.205 -42.337 -95.205 13.8322H104.795ZM106.664 11.9605V11.9596H-93.3364V11.9605H106.664ZM23.0655 111.96C-31.226 111.96 -75.066 67.9234 -75.066 13.8314H124.934C124.934 -42.3377 79.4267 -88.0404 23.0655 -88.0404V111.96ZM-75.066 13.8314C-75.066 -40.3678 -31.1223 -84.3001 23.0655 -84.3001V115.7C79.3231 115.7 124.934 70.1007 124.934 13.8314H-75.066ZM23.0655 -84.3001C77.2572 -84.3001 121.197 -40.3641 121.197 13.8314H-78.803C-78.803 70.0967 -33.1959 115.7 23.0655 115.7V-84.3001ZM121.197 13.8314C121.197 67.9233 77.3569 111.96 23.0655 111.96V-88.0404C-33.2958 -88.0404 -78.803 -42.3378 -78.803 13.8314H121.197Z" fill="#80233A" mask="url(#path-2-inside-1_3_64)"/>
</svg>
