<svg width="31" height="31" viewBox="0 0 31 31" fill="none" xmlns="http://www.w3.org/2000/svg">
<circle cx="15.5" cy="15.5" r="15.25" stroke="#80233A" stroke-width="0.5"/>
<path d="M21.0578 12.5861H20.7079C20.7361 12.5402 20.7636 12.4943 20.7886 12.4488C20.8633 12.3193 20.9393 12.1806 20.985 12.0537C21.4358 10.9768 21.0345 9.71909 20.0315 9.06338C19.1179 8.46422 17.9345 8.46422 17.0164 9.06348C16.6474 9.30607 16.361 9.62045 16.1651 9.99706C16.0789 10.1611 16.0088 10.3437 15.9486 10.5526C15.8885 10.3437 15.8184 10.1611 15.7326 9.99812C15.5364 9.62056 15.2499 9.30619 14.881 9.06348C13.9649 8.46221 12.7818 8.4624 11.8661 9.06306C10.8628 9.71894 10.4614 10.9767 10.9107 12.0501C10.9583 12.1689 11.0245 12.3031 11.1064 12.4449C11.1323 12.4919 11.1606 12.5391 11.1894 12.5859L10.84 12.586C9.68753 12.586 8.75005 13.4765 8.75005 14.5714V15.1793C8.75005 15.771 9.14559 16.2752 9.69793 16.47L10.3681 20.609C10.5261 21.5845 11.3949 22.2926 12.4338 22.2926H19.4638C20.5025 22.2926 21.3712 21.5845 21.5294 20.609L22.1998 16.47C22.7522 16.2753 23.1475 15.7709 23.1475 15.1793V14.5714C23.1477 13.4766 22.2101 12.5861 21.0577 12.5861L21.0578 12.5861ZM16.5813 10.1933C16.7422 9.88379 16.9776 9.62571 17.2801 9.42659C18.0379 8.93197 19.0141 8.93208 19.7679 9.42648C20.5945 9.96701 20.9248 11.0032 20.5498 11.9003C20.5115 12.0058 20.4462 12.1242 20.3792 12.2404C20.332 12.326 20.2768 12.4123 20.2206 12.5008L20.1757 12.566C20.1712 12.5727 20.1661 12.5794 20.1616 12.586H16.181V12.3628C16.181 11.8881 16.2287 11.4177 16.3223 10.965C16.389 10.6475 16.4711 10.4026 16.5811 10.1933L16.5813 10.1933ZM17.3421 16.1156H14.5555V13.0273H17.3421V16.1156ZM11.7224 12.5666L11.6824 12.5084C11.6259 12.4203 11.5674 12.3289 11.5163 12.2365C11.4429 12.1088 11.3857 11.9936 11.3444 11.8902C10.973 11.0029 11.3034 9.96664 12.1303 9.42612C12.8858 8.93032 13.862 8.93032 14.617 9.42601C14.92 9.62545 15.1555 9.8835 15.317 10.1941C15.4263 10.4017 15.5084 10.6467 15.5754 10.9641C15.6691 11.4174 15.7167 11.8878 15.7167 12.3625V12.5857H14.3234L11.7359 12.5856C11.7316 12.5796 11.7266 12.573 11.7224 12.5666L11.7224 12.5666ZM9.21477 15.1791V14.5713C9.21477 13.7198 9.94392 13.0271 10.8402 13.0271H14.0908V16.1157L10.2002 16.1158C9.65672 16.1156 9.21463 15.6956 9.21463 15.1792L9.21477 15.1791ZM10.8274 20.5418L10.1819 16.5566H14.3231V21.8511H12.434C11.6261 21.8511 10.9503 21.3006 10.8275 20.5417L10.8274 20.5418ZM14.7877 21.8512V16.5567H17.1097V21.8512H14.7877ZM21.7162 16.5567L21.0708 20.5418C20.9478 21.3006 20.272 21.8512 19.4642 21.8512H17.5745V16.5567L21.7162 16.5567ZM22.6834 15.1791C22.6834 15.6954 22.2412 16.1155 21.6977 16.1155L17.8066 16.1156V13.027H21.058C21.9543 13.027 22.6835 13.7197 22.6835 14.5712L22.6834 15.1791Z" fill="#80233A"/>
</svg>
