<svg width="31" height="31" viewBox="0 0 31 31" fill="none" xmlns="http://www.w3.org/2000/svg">
<path fill-rule="evenodd" clip-rule="evenodd" d="M20.178 13.28C20.072 13.2802 19.9861 13.366 19.9861 13.4721V15.3416C19.9861 15.4475 20.072 15.5335 20.178 15.5335H22.8182C22.8901 15.5335 22.9559 15.4935 22.9888 15.4296C23.0217 15.3657 23.0163 15.2888 22.9747 15.2303L21.645 13.3608C21.6089 13.3102 21.5507 13.28 21.4885 13.28L20.178 13.28ZM20.3701 13.664H21.3894L22.446 15.1494H20.3699V13.664H20.3701Z" fill="#80233A"/>
<path fill-rule="evenodd" clip-rule="evenodd" d="M8.68944 9.67798C8.12442 9.67798 7.66101 10.1414 7.66101 10.7064V17.3709C7.66101 17.9359 8.12442 18.3993 8.68944 18.3993H10.0329C10.1613 19.1107 10.7853 19.654 11.5338 19.654C12.2819 19.654 12.9066 19.111 13.0352 18.3993H20.0534C20.182 19.1109 20.8072 19.654 21.5548 19.654C22.3024 19.654 22.9275 19.1109 23.0561 18.3993H23.3624C23.8084 18.3993 24.173 18.0326 24.173 17.5886V15.1317H24.1731C24.1767 15.1042 24.1742 15.0763 24.1659 15.0499C24.1648 15.0459 24.1636 15.042 24.1621 15.0381H24.1617C24.1617 15.0381 24.1617 15.038 24.1616 15.038C24.153 15.0136 24.1395 14.9913 24.1219 14.9723L22.0574 12.1077V12.1076C22.0214 12.0576 21.9635 12.0279 21.9018 12.0279L19.2243 12.0262V10.7071C19.2243 10.1421 18.7609 9.67865 18.1959 9.67865H8.68945L8.68944 9.67798ZM8.68944 10.0619H18.1958C18.552 10.0619 18.8403 10.3502 18.8403 10.7064V18.0154H13.0553C12.9972 17.2262 12.3361 16.6009 11.5339 16.6009C10.7317 16.6009 10.0705 17.2262 10.0124 18.0154H8.68948C8.33335 18.0154 8.04501 17.7272 8.04501 17.371V10.7065C8.04501 10.3503 8.33322 10.062 8.68948 10.062L8.68944 10.0619ZM19.2244 12.4095L21.8035 12.4112L23.7892 15.1664V17.5886C23.7892 17.8231 23.5989 18.0153 23.3627 18.0153H23.0765C23.0184 17.226 22.3572 16.6007 21.5551 16.6007C20.753 16.6007 20.0918 17.226 20.0336 18.0153H19.2244L19.2244 12.4095ZM11.5341 16.9849C12.1664 16.9849 12.6757 17.494 12.6757 18.1285V18.1499C12.6642 18.772 12.16 19.2701 11.5341 19.2701C10.9017 19.2701 10.3945 18.7628 10.3925 18.1322V18.129C10.3925 17.4944 10.9018 16.9854 11.5341 16.9854V16.9849ZM21.5552 16.9849C22.1874 16.9849 22.6968 17.494 22.6968 18.1285C22.6968 18.7609 22.1875 19.2701 21.5552 19.2701C20.9229 19.2701 20.4135 18.7608 20.4135 18.1285C20.4135 17.4939 20.9229 16.9849 21.5552 16.9849Z" fill="#80233A"/>
<path fill-rule="evenodd" clip-rule="evenodd" d="M13.7937 12.5611C13.7423 12.5603 13.6927 12.5802 13.6562 12.6162C13.6196 12.6524 13.599 12.7016 13.599 12.753C13.599 12.8044 13.6196 12.8537 13.6562 12.8897C13.6927 12.9259 13.7423 12.9457 13.7937 12.945H17.5593C17.6107 12.9457 17.6603 12.9259 17.6968 12.8897C17.7335 12.8537 17.754 12.8044 17.754 12.753C17.754 12.7016 17.7335 12.6524 17.6968 12.6162C17.6603 12.5802 17.6107 12.5603 17.5593 12.5611H13.7937Z" fill="#80233A"/>
<path fill-rule="evenodd" clip-rule="evenodd" d="M12.0708 14.2838C12.0194 14.283 11.9699 14.303 11.9333 14.3391C11.8967 14.3752 11.8761 14.4245 11.8761 14.4758C11.8761 14.5272 11.8967 14.5765 11.9333 14.6125C11.9699 14.6487 12.0194 14.6685 12.0708 14.6678H17.5593C17.6107 14.6685 17.6603 14.6487 17.6968 14.6125C17.7335 14.5765 17.754 14.5272 17.754 14.4758C17.754 14.4245 17.7335 14.3752 17.6968 14.3391C17.6603 14.303 17.6107 14.283 17.5593 14.2838H12.0708Z" fill="#80233A"/>
<path fill-rule="evenodd" clip-rule="evenodd" d="M8.50546 20.5729C8.45403 20.5721 8.40448 20.5921 8.36792 20.6281C8.33136 20.6642 8.31073 20.7134 8.31073 20.7648C8.31073 20.8162 8.33135 20.8655 8.36792 20.9016C8.40448 20.9377 8.45403 20.9575 8.50546 20.9569H23.0916C23.1431 20.9575 23.1926 20.9377 23.2292 20.9016C23.2659 20.8655 23.2864 20.8162 23.2864 20.7648C23.2864 20.7134 23.2659 20.6642 23.2292 20.6281C23.1926 20.5921 23.1431 20.5721 23.0916 20.5729H8.50546Z" fill="#80233A"/>
<circle cx="15.5" cy="15.5" r="15.25" stroke="#80233A" stroke-width="0.5"/>
</svg>
