<svg width="31" height="31" viewBox="0 0 31 31" fill="none" xmlns="http://www.w3.org/2000/svg">
<circle cx="15.5" cy="15.5" r="15.25" stroke="#80233A" stroke-width="0.5"/>
<path d="M21.4707 11.3395C19.6832 10.2594 17.8614 10.7929 17.0531 11.1332C17.1689 10.0823 16.6568 9.43267 16.1703 9.06005V9.06018C15.7009 8.7055 15.1319 8.5076 14.5437 8.49434C12.9594 8.44032 11.7129 8.8635 10.8335 9.7462C9.42895 11.1556 9.4881 13.2181 9.4908 13.2954V21.6831C9.49129 21.795 9.53623 21.9022 9.61566 21.981C9.69521 22.0597 9.80276 22.1037 9.9146 22.1032H9.92626C10.27 22.0902 18.4132 21.7594 22.0325 19.841H22.0327C22.3772 19.6562 22.6648 19.3809 22.8643 19.0448C23.0639 18.7087 23.168 18.3244 23.1653 17.9335V14.0326C23.1966 12.903 22.3854 11.8938 21.4706 11.3396L21.4707 11.3395ZM11.1646 10.0718C11.9057 9.32966 12.9559 8.95387 14.2889 8.95387C14.3676 8.95387 14.4478 8.95387 14.5295 8.95805C15.0207 8.97045 15.496 9.13471 15.8898 9.42825C16.5343 9.92017 16.7444 10.6107 16.5179 11.4812C16.4943 11.5714 16.5273 11.667 16.6015 11.7236C16.6756 11.7802 16.7765 11.7869 16.8574 11.7403C16.8798 11.7276 19.1262 10.4667 21.2314 11.7379C22.0997 12.2624 22.9157 13.3191 22.6507 14.404C22.3393 15.6825 20.3022 17.93 10.1594 18.6004L9.95313 18.6124V13.2874C9.95313 13.2689 9.90157 11.3357 11.1645 10.072L11.1646 10.0718ZM22.7023 17.9346C22.7048 18.2414 22.6235 18.5431 22.4672 18.8071C22.311 19.0712 22.0857 19.2876 21.8155 19.433C18.4209 21.2339 10.6027 21.6114 9.95621 21.6395V19.0779L10.19 19.0642C18.4909 18.5142 21.6501 16.8986 22.7042 15.3801L22.7023 17.9346Z" fill="#80233A"/>
<path d="M12.1381 17.9658C12.2255 17.9659 12.3054 17.9168 12.3448 17.8387C12.3842 17.7608 12.3764 17.6672 12.3244 17.597C11.0182 15.8263 11.1931 15.5551 11.2011 15.5444C11.3362 15.3653 12.5899 15.8307 13.2636 16.0807C14.0773 16.3824 14.9188 16.695 15.6331 16.8108C16.0012 16.8705 16.3954 16.894 16.5323 16.6165C16.7166 16.2432 16.2436 15.7736 15.1556 14.7465C14.2248 13.8679 13.0663 12.7741 12.8567 11.9965C12.8343 11.9133 12.8061 11.7662 12.8694 11.7164C13.1716 11.4778 14.7518 11.8707 18.2082 13.7607C19.3814 14.4025 21.1163 14.3389 21.1895 14.3365H21.1894C21.3169 14.3311 21.4161 14.2234 21.4111 14.0959C21.4096 14.0341 21.3832 13.9757 21.3378 13.9338C21.2925 13.8919 21.2321 13.8703 21.1704 13.8738C21.1542 13.8738 19.492 13.9353 18.43 13.3547C15.1445 11.5582 13.1771 10.8852 12.5827 11.3527C12.4397 11.4652 12.2936 11.6889 12.4092 12.1172C12.6528 13.023 13.8137 14.1188 14.8374 15.0855C15.3104 15.5324 15.9408 16.127 16.0793 16.3858H16.0794C15.9546 16.389 15.8299 16.379 15.7072 16.3556C15.0376 16.247 14.2174 15.9431 13.4247 15.6485C12.1185 15.1634 11.1741 14.8128 10.8318 15.2679C10.5888 15.5901 10.6865 16.1565 11.9521 17.8735L11.952 17.8737C11.9959 17.9321 12.0649 17.9662 12.138 17.9657L12.1381 17.9658Z" fill="#80233A"/>
</svg>
