<svg width="40" height="40" viewBox="0 0 40 40" fill="none" xmlns="http://www.w3.org/2000/svg">
<path d="M33.8464 11.5024H32.8842C32.9616 11.3695 33.0374 11.2366 33.1061 11.105C33.3115 10.7302 33.5205 10.3288 33.646 9.96136C34.8859 6.84396 33.7823 3.20328 31.024 1.30515C28.5115 -0.429238 25.2572 -0.429238 22.7323 1.30546C21.7177 2.00769 20.9301 2.91774 20.3915 4.00792C20.1542 4.48273 19.9615 5.01128 19.796 5.6162C19.6306 5.01126 19.4379 4.48273 19.2022 4.01098C18.6626 2.91806 17.8747 2.00804 16.86 1.30546C14.3409 -0.435059 11.0875 -0.434509 8.56916 1.30423C5.80997 3.20283 4.70628 6.84383 5.94189 9.95101C6.07264 10.2948 6.25465 10.6833 6.47993 11.0937C6.55113 11.23 6.62909 11.3665 6.70827 11.5019L5.74734 11.5022C2.57809 11.5022 0 14.08 0 17.2495V19.0091C0 20.7221 1.08774 22.1815 2.60669 22.7453L4.44974 34.7266C4.88402 37.5506 7.27343 39.6002 10.1302 39.6002H29.4627C32.3192 39.6002 34.7083 37.5506 35.1432 34.7266L36.9869 22.7453C38.5058 22.1818 39.5929 20.7218 39.5929 19.0091V17.2495C39.5935 14.0803 37.0154 11.5024 33.8464 11.5024ZM21.5358 4.57589C21.9784 3.68002 22.6257 2.93296 23.4578 2.35656C25.5417 0.924752 28.2261 0.925067 30.299 2.35625C32.5724 3.92092 33.4805 6.92047 32.4493 9.51733C32.344 9.82272 32.1644 10.1655 31.9803 10.5019C31.8505 10.7496 31.6985 10.9994 31.5441 11.2557L31.4205 11.4445C31.4082 11.4638 31.3941 11.4831 31.3818 11.5022H20.4352V10.8561C20.4352 9.48204 20.5663 8.12024 20.8238 6.80998C21.007 5.89077 21.2332 5.18175 21.5358 4.57589ZM23.6281 21.7194H15.965V12.7795H23.6281V21.7194ZM8.1739 11.4462L8.06403 11.2777C7.90872 11.0226 7.7476 10.7581 7.60733 10.4904C7.40538 10.1209 7.24793 9.78724 7.13437 9.48798C6.11326 6.91963 7.02173 3.91986 9.29571 2.35519C11.3732 0.919999 14.0578 0.919999 16.1342 2.35488C16.9674 2.9322 17.6151 3.6792 18.0592 4.57821C18.3596 5.17916 18.5855 5.88847 18.7697 6.80736C19.0275 8.11943 19.1583 9.48123 19.1583 10.8554V11.5014L8.21106 11.5011C8.1994 11.4836 8.18557 11.4646 8.1739 11.4462ZM1.278 19.0087V17.2491C1.278 14.7842 3.28315 12.7791 5.74801 12.7791H14.6871V21.7197L3.98801 21.72C2.49335 21.7194 1.278 20.5034 1.278 19.0087ZM5.71265 34.532L3.93773 22.9962H15.3259V38.3223H10.131C7.9092 38.3223 6.05051 36.729 5.71265 34.532ZM16.6034 38.3225V22.9963H22.9892V38.3225H16.6034ZM35.657 22.9963L33.8821 34.5322C33.5438 36.7288 31.6855 38.3226 29.464 38.3226H24.2672V22.9965L35.657 22.9963ZM38.3168 19.0085C38.3168 20.5032 37.1008 21.7192 35.6061 21.7192L24.9055 21.7195V12.7789H33.8469C36.3117 12.7789 38.3169 14.784 38.3169 17.2489L38.3168 19.0085Z" fill="#80233A"/>
</svg>
