<svg width="39" height="42" viewBox="0 0 39 42" fill="none" xmlns="http://www.w3.org/2000/svg">
<path d="M36.552 7.86704C35.2106 6.10634 33.2636 4.9533 31.0733 4.6122C30.1188 4.46441 29.1578 4.47036 28.1967 4.63478C26.0626 1.74366 22.7428 0 19.211 0C15.6853 0 12.3655 1.74366 10.2253 4.63478C9.26419 4.46996 8.30357 4.46441 7.34863 4.6122C5.15839 4.95293 3.21139 6.11182 1.86991 7.86704C0.235025 10.0026 -0.363903 12.8315 0.216306 15.6259C1.07117 19.7271 4.26607 22.8507 8.00416 23.6745C7.99807 23.703 7.99154 23.7371 7.99154 23.7712V37.9539C7.99154 38.0221 8.00416 38.0902 8.03506 38.1469C8.01025 38.2376 7.99154 38.3287 7.99154 38.425C7.99154 39.3279 9.19597 40.0038 11.6796 40.4983C13.8011 40.9242 16.6217 41.1572 19.6045 41.1572C22.5935 41.1572 25.4075 40.9242 27.5294 40.4983C30.0131 40.0042 31.2175 39.3223 31.2175 38.425C31.2175 38.3283 31.2049 38.2376 31.174 38.1469C31.1988 38.0843 31.2175 38.0221 31.2175 37.9539L31.2166 23.7712C31.2166 23.6689 31.1792 23.5667 31.123 23.4871C34.5425 22.4419 37.3943 19.4601 38.1931 15.626C38.7859 12.8315 38.1804 10.0026 36.552 7.86704ZM27.092 39.5046C25.0701 39.8854 22.412 40.1009 19.6101 40.1009C16.8082 40.1009 14.1501 39.8909 12.1282 39.5046C9.85699 39.0728 9.21416 38.5787 9.158 38.4309C9.21415 38.2831 9.85704 37.7835 12.1282 37.3572C14.1501 36.9764 16.8082 36.7609 19.6101 36.7609C22.412 36.7609 25.0701 36.9709 27.092 37.3572C29.3632 37.7891 30.0061 38.2831 30.0622 38.4309C30.0061 38.5787 29.3636 39.0728 27.092 39.5046ZM30.0622 23.771V37.113C29.4568 36.8233 28.6206 36.5733 27.535 36.3574C25.4135 35.9315 22.5929 35.6985 19.6101 35.6985C16.6212 35.6985 13.8071 35.9315 11.6852 36.3574C10.6057 36.5733 9.76351 36.8233 9.158 37.113L9.15844 23.8562C9.42656 23.8788 9.69512 23.8959 9.96325 23.8959C10.4124 23.8959 10.8682 23.8618 11.3235 23.7936C12.3716 23.6288 13.3639 23.2825 14.269 22.76C15.7854 23.5266 17.47 23.947 19.2049 23.947C20.946 23.947 22.6244 23.5322 24.1409 22.76C25.0458 23.2826 26.0377 23.6289 27.0864 23.7936C27.5421 23.8618 27.9974 23.8959 28.4466 23.8959C28.9894 23.8959 29.526 23.8447 30.0566 23.7481C30.0688 23.754 30.0622 23.7651 30.0622 23.771ZM37.0574 15.4269C36.0776 20.1469 31.691 23.4244 27.2917 22.7429C26.5739 22.6291 25.894 22.4192 25.2512 22.1125C25.276 22.0955 25.2947 22.0784 25.32 22.0669C25.3887 22.0214 25.4571 21.9762 25.5258 21.9251C25.5694 21.891 25.6133 21.8625 25.663 21.8284C25.713 21.7943 25.7626 21.7547 25.8127 21.7147C25.8688 21.6691 25.925 21.6295 25.9811 21.584C26.0186 21.5554 26.0499 21.5329 26.0808 21.5043C26.1496 21.4477 26.2179 21.3966 26.2806 21.3395C26.2993 21.3225 26.318 21.3054 26.3368 21.2884C26.4177 21.2202 26.4926 21.1521 26.5674 21.084L26.5735 21.0784C27.2726 20.4536 27.8902 19.7436 28.4269 18.954C28.4457 18.9314 28.4583 18.9029 28.477 18.8803C28.5205 18.8177 28.5645 18.7495 28.6019 18.6873C28.6206 18.6588 28.6393 18.6247 28.6642 18.5966C28.6642 18.5911 28.6702 18.5911 28.6702 18.5851C28.9075 18.2103 29.1194 17.824 29.3192 17.4207C29.4502 17.1537 29.3192 16.8415 29.0198 16.7222C28.7264 16.603 28.3834 16.7222 28.2524 16.9948C27.3475 18.8522 25.925 20.4255 24.2275 21.4593C24.184 21.4819 24.1465 21.5104 24.1026 21.533C24.0464 21.567 23.9903 21.6011 23.9341 21.6296C22.4924 22.4363 20.8764 22.8792 19.198 22.8792C17.5195 22.8792 15.8969 22.4363 14.4618 21.6296C14.4056 21.6011 14.3556 21.567 14.2994 21.533C14.2559 21.5044 14.212 21.4819 14.1684 21.4533C12.4714 20.4197 11.0484 18.8463 10.1435 16.9889C10.0125 16.7218 9.66907 16.6026 9.37614 16.7163C9.08277 16.8355 8.95175 17.1481 9.07667 17.4148C9.26993 17.8181 9.48843 18.2044 9.72565 18.5792C9.72565 18.5847 9.72565 18.5847 9.73175 18.5907C9.75046 18.6192 9.76918 18.6533 9.7879 18.6814C9.83143 18.7495 9.87539 18.8121 9.91892 18.8743C9.93763 18.8969 9.95026 18.9255 9.96897 18.948C10.5057 19.7377 11.1294 20.4477 11.8285 21.078C11.9095 21.1462 11.9843 21.2143 12.0657 21.2825C12.0844 21.2995 12.1031 21.311 12.1158 21.328C12.1845 21.3847 12.2529 21.4418 12.3217 21.4984C12.353 21.5269 12.3839 21.5495 12.4213 21.578C12.4775 21.6236 12.5397 21.6688 12.5959 21.7143C12.6459 21.7484 12.6895 21.788 12.7395 21.8221C12.7896 21.8562 12.8331 21.8903 12.8832 21.9243C12.9519 21.9699 13.0142 22.0151 13.0829 22.0606C13.1078 22.0777 13.133 22.0947 13.1578 22.1117C12.5149 22.4184 11.835 22.6288 11.1173 22.7421C6.71814 23.4236 2.33142 20.1461 1.35163 15.4262C0.827566 12.9098 1.36425 10.3765 2.81803 8.46796C3.97844 6.94572 5.65723 5.94614 7.53547 5.65058C8.20317 5.54836 8.88353 5.53132 9.56335 5.61096C9.48849 5.73022 9.41971 5.85502 9.35138 5.97467C9.20774 6.23577 9.32657 6.55392 9.61342 6.68467C9.90026 6.81542 10.2498 6.70725 10.3934 6.44615C12.2215 3.11767 15.5975 1.05025 19.1981 1.05025C22.7986 1.05025 26.1745 3.11767 28.0027 6.44615C28.1024 6.63356 28.3083 6.74133 28.5268 6.74133C28.6142 6.74133 28.7013 6.72429 28.7888 6.68467C29.0756 6.55392 29.1945 6.23577 29.0508 5.97467C28.9821 5.84986 28.9137 5.73061 28.8389 5.61096C29.5192 5.53727 30.1929 5.54836 30.8667 5.65058C32.7449 5.94021 34.4238 6.94582 35.5842 8.46796C37.0515 10.3777 37.5814 12.9166 37.0574 15.4269Z" fill="#80233A"/>
</svg>
