<svg width="41" height="41" viewBox="0 0 41 41" fill="none" xmlns="http://www.w3.org/2000/svg">
<path d="M35.3979 8.41969C30.1167 5.22847 24.7342 6.80482 22.346 7.81032C22.6884 4.70536 21.1751 2.78591 19.738 1.685C18.3509 0.637105 16.6697 0.0527456 14.9319 0.0135599C10.2509 -0.146043 6.56822 1.10426 3.97008 3.71225C-0.1798 7.87633 -0.00504311 13.9702 0.0029426 14.1986V38.9803C0.0043935 39.3111 0.137149 39.6278 0.371836 39.8607C0.606876 40.0932 0.924625 40.223 1.25507 40.2216H1.28952C2.3052 40.1831 26.3647 39.2059 37.0581 33.5377C38.0759 32.9918 38.9261 32.1786 39.5155 31.1854C40.1053 30.1923 40.4129 29.057 40.4049 27.9021V16.3767C40.4974 13.0393 38.1007 10.057 35.3979 8.41969ZM4.94824 4.67421C7.13799 2.48157 10.2407 1.37128 14.1792 1.37128C14.4117 1.37128 14.6485 1.37128 14.8901 1.38361C16.3414 1.42025 17.7455 1.90557 18.909 2.77285C20.8134 4.22625 21.4339 6.2666 20.7647 8.83828C20.6951 9.10488 20.7926 9.38744 21.0117 9.55465C21.2308 9.72187 21.529 9.74145 21.768 9.60398C21.834 9.56626 28.4712 5.84113 34.6909 9.59673C37.2565 11.1466 39.6675 14.2686 38.8844 17.474C37.9645 21.2514 31.9458 27.8916 1.97828 29.8723L1.36891 29.9078V14.175C1.36891 14.1203 1.2169 8.40781 4.94824 4.67421ZM39.037 27.9052C39.0443 28.8117 38.8042 29.7032 38.3424 30.4831C37.8807 31.2633 37.215 31.9028 36.4167 32.3323C26.3872 37.6531 3.28809 38.7684 1.37802 38.8515V31.2833L2.06864 31.2426C26.5941 29.6176 35.9281 24.8442 39.0425 20.3579L39.037 27.9052Z" fill="#80233A"/>
<path d="M7.82444 27.9974C8.0827 27.9977 8.31883 27.8527 8.43527 27.622C8.5517 27.3916 8.52849 27.1152 8.37505 26.9078C4.51573 21.6762 5.03257 20.8749 5.05615 20.8434C5.45515 20.3141 9.15933 21.6892 11.1499 22.4277C13.5541 23.3193 16.0401 24.2428 18.1505 24.5848C19.2383 24.7614 20.403 24.8307 20.8074 24.0109C21.3519 22.9079 19.9543 21.5205 16.7398 18.4859C13.9897 15.8899 10.5669 12.6584 9.9475 10.3609C9.88148 10.115 9.79805 9.68046 9.98522 9.53319C10.8779 8.82842 15.5469 9.98914 25.7589 15.5733C29.225 17.4696 34.351 17.2817 34.5672 17.2744C34.9441 17.2584 35.2368 16.9403 35.2219 16.5635C35.2176 16.381 35.1396 16.2084 35.0054 16.0847C34.8715 15.961 34.6931 15.8972 34.511 15.9073C34.4631 15.9073 29.5519 16.089 26.4143 14.3737C16.707 9.06597 10.8942 7.07753 9.13823 8.45878C8.71566 8.79103 8.28402 9.45188 8.62535 10.7174C9.34535 13.3936 12.7752 16.6313 15.7997 19.4873C17.1973 20.8077 19.0598 22.5647 19.469 23.3293C19.1001 23.3387 18.732 23.309 18.3696 23.2401C16.3913 22.9191 13.968 22.0213 11.6258 21.1508C7.7665 19.7176 4.97642 18.6817 3.96512 20.0264C3.24692 20.9782 3.53565 22.6517 7.27501 27.7248C7.40486 27.8974 7.60863 27.9988 7.82444 27.9974Z" fill="#80233A"/>
</svg>
