<svg width="17" height="18" viewBox="0 0 17 18" fill="none" xmlns="http://www.w3.org/2000/svg">
<path d="M8.32378 1.45572C9.07597 1.45572 9.79735 1.74623 10.3292 2.26333C10.8611 2.78044 11.1599 3.48178 11.1599 4.21308V4.76455H5.48765V4.21308C5.48765 3.48178 5.78645 2.78044 6.31833 2.26333C6.85021 1.74623 7.57159 1.45572 8.32378 1.45572ZM12.2944 4.76455V4.21308C12.2944 3.18926 11.876 2.20738 11.1314 1.48344C10.3868 0.759492 9.37685 0.352783 8.32378 0.352783C7.27072 0.352783 6.26078 0.759492 5.51615 1.48344C4.77152 2.20738 4.35319 3.18926 4.35319 4.21308V4.76455H0.382607V15.794C0.382607 16.379 0.621651 16.9401 1.04715 17.3538C1.47266 17.7674 2.04976 17.9998 2.65151 17.9998H13.996C14.5978 17.9998 15.1749 17.7674 15.6004 17.3538C16.0259 16.9401 16.265 16.379 16.265 15.794V4.76455H12.2944ZM1.51706 5.86749H15.1305V15.794C15.1305 16.0865 15.011 16.367 14.7982 16.5739C14.5855 16.7807 14.2969 16.8969 13.996 16.8969H2.65151C2.35064 16.8969 2.06209 16.7807 1.84933 16.5739C1.63658 16.367 1.51706 16.0865 1.51706 15.794V5.86749Z" fill="#80233A"/>
</svg>
