<svg width="16" height="18" viewBox="0 0 16 18" fill="none" xmlns="http://www.w3.org/2000/svg">
<path d="M10.089 9.96463C11.6481 9.15655 12.7166 7.53032 12.7166 5.65708C12.7166 2.98187 10.5398 0.804199 7.86362 0.804199C5.18742 0.804199 3.01068 2.98187 3.01068 5.65708C3.01068 7.53027 4.07913 9.1565 5.63822 9.96463C2.58624 10.9149 0.36377 13.7668 0.36377 17.1277V17.5689H15.3638V17.1277C15.3638 13.767 13.1411 10.915 10.0893 9.96463H10.089ZM3.89288 5.65708C3.89288 3.46797 5.67432 1.68654 7.86347 1.68654C10.0526 1.68654 11.8341 3.46797 11.8341 5.65708C11.8341 7.8462 10.0526 9.62762 7.86347 9.62762C5.67432 9.62762 3.89288 7.8462 3.89288 5.65708ZM1.26079 16.6864C1.48847 13.2427 4.3632 10.51 7.86332 10.51C11.3634 10.51 14.2384 13.2427 14.4658 16.6864H1.26079Z" fill="#80233A"/>
</svg>
