<svg width="92" height="65" viewBox="0 0 92 65" fill="none" xmlns="http://www.w3.org/2000/svg">
<path fill-rule="evenodd" clip-rule="evenodd" d="M42.2133 32.6321L42.6116 30.0754L41.7243 30.0545H37.4873L40.4319 11.188C40.441 11.1309 40.4707 11.0778 40.514 11.0401C40.5575 11.0024 40.613 10.9817 40.671 10.9817H47.8153C50.1872 10.9817 51.824 11.4803 52.6784 12.4647C53.0791 12.9265 53.3343 13.4092 53.4578 13.9402C53.5873 14.4975 53.5894 15.1632 53.4631 15.9753L53.454 16.0344V16.5548L53.8546 16.7842C54.1919 16.965 54.4601 17.172 54.6657 17.4089C55.0084 17.8039 55.23 18.3058 55.3237 18.9006C55.4206 19.5124 55.3886 20.2406 55.23 21.065C55.0472 22.0132 54.7517 22.8391 54.3526 23.5147C53.9856 24.1374 53.518 24.6539 52.9626 25.054C52.4325 25.4343 51.8027 25.723 51.0905 25.9077C50.4004 26.0893 49.6136 26.1809 48.7506 26.1809H48.1946C47.7971 26.1809 47.411 26.3255 47.1078 26.5849C46.8038 26.8496 46.6028 27.2114 46.5412 27.607L46.4992 27.8372L45.7953 32.3436L45.7635 32.509C45.755 32.5613 45.7405 32.5874 45.7192 32.6051C45.7002 32.6213 45.6729 32.6321 45.6462 32.6321H42.2133" fill="#28356A"/>
<path fill-rule="evenodd" clip-rule="evenodd" d="M54.2342 16.0945C54.2131 16.2322 54.1886 16.373 54.1612 16.5177C53.2191 21.4059 49.9957 23.0945 45.879 23.0945H43.7829C43.2794 23.0945 42.8551 23.4638 42.7768 23.9657L41.3997 32.7929C41.3487 33.1225 41.6 33.4193 41.929 33.4193H45.6467C46.0868 33.4193 46.4608 33.0962 46.5302 32.6575L46.5666 32.4667L47.2666 27.978L47.3116 27.7318C47.3801 27.2916 47.755 26.9682 48.1951 26.9682H48.7511C52.3529 26.9682 55.1727 25.4906 55.9969 21.2142C56.341 19.4279 56.1628 17.9362 55.2519 16.8872C54.9762 16.5709 54.6342 16.3083 54.2342 16.0945" fill="#298FC2"/>
<path fill-rule="evenodd" clip-rule="evenodd" d="M53.2486 15.6974C53.1046 15.6549 52.9561 15.6166 52.8038 15.5819C52.6506 15.548 52.4938 15.518 52.3323 15.4917C51.7671 15.3995 51.1478 15.3557 50.4845 15.3557H44.8849C44.7468 15.3557 44.6158 15.3872 44.4987 15.4441C44.2404 15.5696 44.0486 15.8166 44.0021 16.1191L42.8107 23.7435L42.7766 23.9658C42.8549 23.4639 43.2792 23.0946 43.7827 23.0946H45.8788C49.9955 23.0946 53.2189 21.405 54.1611 16.5177C54.1892 16.3731 54.2129 16.2323 54.234 16.0945C53.9957 15.9667 53.7376 15.8574 53.4596 15.7642C53.3909 15.7412 53.3201 15.719 53.2486 15.6974" fill="#22284F"/>
<path fill-rule="evenodd" clip-rule="evenodd" d="M44.002 16.1192C44.0485 15.8167 44.2403 15.5697 44.4986 15.445C44.6166 15.3879 44.7468 15.3564 44.8848 15.3564H50.4844C51.1477 15.3564 51.7671 15.4004 52.3322 15.4927C52.4937 15.5188 52.6505 15.549 52.8037 15.5828C52.956 15.6173 53.1045 15.6559 53.2485 15.6981C53.32 15.7197 53.3908 15.7421 53.4601 15.7643C53.7381 15.8575 53.9965 15.9676 54.2348 16.0946C54.5151 14.2882 54.2325 13.0583 53.266 11.9446C52.2004 10.7183 50.2773 10.1936 47.8164 10.1936H40.6719C40.1693 10.1936 39.7404 10.5629 39.6628 11.0656L36.6871 30.1262C36.6284 30.5032 36.9162 30.8434 37.2925 30.8434H41.7032L44.002 16.1192" fill="#28356A"/>
<path fill-rule="evenodd" clip-rule="evenodd" d="M21.1635 37.8213H15.9545C15.598 37.8213 15.2949 38.083 15.2392 38.4387L13.1324 51.9361C13.0906 52.2026 13.2948 52.4425 13.5621 52.4425H16.0488C16.4053 52.4425 16.7085 52.181 16.7642 51.8246L17.3323 48.184C17.3871 47.8277 17.6909 47.566 18.0468 47.566H19.6957C23.1269 47.566 25.1072 45.8881 25.6245 42.5633C25.8575 41.1085 25.6344 39.9657 24.9602 39.1652C24.2199 38.2863 22.9067 37.8213 21.1635 37.8213ZM21.7642 42.7511C21.4793 44.6398 20.0512 44.6398 18.6705 44.6398H17.8843L18.4358 41.1124C18.4686 40.8992 18.6513 40.7423 18.8646 40.7423H19.2249C20.1656 40.7423 21.0529 40.7423 21.5113 41.284C21.7849 41.6072 21.8685 42.0875 21.7642 42.7511V42.7511Z" fill="#28356A"/>
<path fill-rule="evenodd" clip-rule="evenodd" d="M36.867 42.5882H34.3726C34.1601 42.5882 33.9764 42.7452 33.9438 42.9584L33.8333 43.6633L33.659 43.4079C33.119 42.6158 31.9147 42.3511 30.7129 42.3511C27.9563 42.3511 25.602 44.4608 25.1436 47.4201C24.9053 48.8962 25.244 50.3079 26.0729 51.2923C26.833 52.1973 27.9207 52.5746 29.2146 52.5746C31.4357 52.5746 32.6671 51.1314 32.6671 51.1314L32.556 51.8319C32.5142 52.0996 32.7183 52.3398 32.9842 52.3398H35.2309C35.5882 52.3398 35.8899 52.0781 35.9462 51.7217L37.2943 43.0946C37.337 42.829 37.1335 42.5882 36.867 42.5882ZM33.3899 47.4941C33.1493 48.934 32.0183 49.9007 30.5757 49.9007C29.8514 49.9007 29.2726 49.6659 28.9007 49.2211C28.5321 48.7794 28.3921 48.1505 28.5092 47.4501C28.7341 46.0225 29.884 45.0241 31.3047 45.0241C32.013 45.0241 32.5888 45.2621 32.9681 45.7105C33.3481 46.1639 33.4989 46.7967 33.3899 47.4941V47.4941Z" fill="#28356A"/>
<path fill-rule="evenodd" clip-rule="evenodd" d="M49.9602 42.804H47.4534C47.2143 42.804 46.9896 42.924 46.8541 43.125L43.3969 48.2708L41.9314 43.3257C41.8393 43.0163 41.5568 42.804 41.2368 42.804H38.7737C38.4742 42.804 38.2664 43.0995 38.3616 43.3843L41.1227 51.5718L38.5269 55.2747C38.3227 55.5664 38.5284 55.9674 38.8811 55.9674H41.3846C41.6223 55.9674 41.8446 55.8503 41.9795 55.6535L50.3165 43.4927C50.5162 43.2019 50.3112 42.804 49.9602 42.804" fill="#28356A"/>
<path fill-rule="evenodd" clip-rule="evenodd" d="M58.3165 37.8213H53.1069C52.7512 37.8213 52.4481 38.083 52.3924 38.4387L50.2856 51.9361C50.2438 52.2026 50.448 52.4425 50.7138 52.4425H53.3872C53.6353 52.4425 53.8478 52.2595 53.8866 52.01L54.4846 48.184C54.5395 47.8277 54.8435 47.566 55.1991 47.566H56.8474C60.2793 47.566 62.2589 45.8881 62.7769 42.5633C63.0107 41.1085 62.7861 39.9657 62.1119 39.1652C61.3722 38.2863 60.0599 37.8213 58.3165 37.8213ZM58.9176 42.7511C58.6334 44.6398 57.2053 44.6398 55.8237 44.6398H55.0385L55.5907 41.1124C55.6233 40.8992 55.8047 40.7423 56.0187 40.7423H56.379C57.3188 40.7423 58.2069 40.7423 58.6654 41.284C58.9389 41.6072 59.0219 42.0875 58.9176 42.7511V42.7511Z" fill="#298FC2"/>
<path fill-rule="evenodd" clip-rule="evenodd" d="M74.0169 42.5882H71.5239C71.31 42.5882 71.128 42.7452 71.096 42.9584L70.9855 43.6633L70.8103 43.4079C70.2703 42.6158 69.0669 42.3511 67.8649 42.3511C65.1085 42.3511 62.7551 44.4608 62.2966 47.4201C62.0589 48.8962 62.3962 50.3079 63.2249 51.2923C63.9867 52.1973 65.0726 52.5746 66.3668 52.5746C68.5877 52.5746 69.8193 51.1314 69.8193 51.1314L69.7082 51.8319C69.6664 52.0996 69.8703 52.3398 70.1378 52.3398H72.3839C72.7396 52.3398 73.0427 52.0781 73.0984 51.7217L74.4472 43.0946C74.4883 42.829 74.2842 42.5882 74.0169 42.5882ZM70.5398 47.4941C70.3007 48.934 69.1681 49.9007 67.7254 49.9007C67.0026 49.9007 66.4223 49.6659 66.0505 49.2211C65.682 48.7794 65.5433 48.1505 65.659 47.4501C65.8853 46.0225 67.0338 45.0241 68.4544 45.0241C69.1627 45.0241 69.7385 45.2621 70.1179 45.7105C70.4993 46.1639 70.6501 46.7967 70.5398 47.4941V47.4941Z" fill="#298FC2"/>
<path fill-rule="evenodd" clip-rule="evenodd" d="M76.7498 38.1923L74.6119 51.9367C74.5701 52.2032 74.774 52.4431 75.0399 52.4431H77.1893C77.5467 52.4431 77.8496 52.1816 77.9044 51.8253L80.0127 38.3286C80.0547 38.0621 79.8506 37.8213 79.5847 37.8213H77.178C76.9655 37.8219 76.7827 37.9791 76.7498 38.1923" fill="#298FC2"/>
</svg>
