<svg width="11" height="22" viewBox="0 0 11 22" fill="none" xmlns="http://www.w3.org/2000/svg">
<path d="M10.5249 19.8422L1.99886 11.0957L10.5249 2.34917C10.6775 2.1929 10.763 1.98312 10.763 1.76467C10.763 1.54622 10.6775 1.33644 10.5249 1.18017C10.4507 1.1045 10.3622 1.04439 10.2646 1.00335C10.1669 0.962315 10.062 0.941177 9.95611 0.941177C9.85018 0.941177 9.74531 0.962315 9.64765 1.00335C9.54999 1.04439 9.4615 1.1045 9.38736 1.18017L0.31536 10.4849C0.156085 10.6483 0.0669437 10.8675 0.0669437 11.0957C0.0669437 11.3239 0.156085 11.543 0.31536 11.7064L9.38561 21.0112C9.4598 21.0874 9.54851 21.1479 9.64649 21.1893C9.74448 21.2306 9.84975 21.252 9.95611 21.252C10.0625 21.252 10.1677 21.2306 10.2657 21.1893C10.3637 21.1479 10.4524 21.0874 10.5266 21.0112C10.6792 20.8549 10.7647 20.6451 10.7647 20.4267C10.7647 20.2082 10.6792 19.9984 10.5266 19.8422L10.5249 19.8422Z" fill="#80233A"/>
</svg>
