<svg width="92" height="64" viewBox="0 0 92 64" fill="none" xmlns="http://www.w3.org/2000/svg">
<path d="M40.6224 43.5083H34.531L38.341 21.5256H44.432L40.6224 43.5083Z" fill="#15195A"/>
<path d="M62.7039 22.0631C61.5024 21.6183 59.5967 21.1272 57.2404 21.1272C51.225 21.1272 46.989 24.1204 46.9631 28.3998C46.9131 31.5572 49.9959 33.3108 52.3016 34.3636C54.6583 35.4393 55.4594 36.1415 55.4594 37.1004C55.4354 38.5731 53.555 39.2519 51.8013 39.2519C49.3693 39.2519 48.0663 38.9019 46.086 38.0826L45.2839 37.7313L44.4315 42.666C45.8602 43.2733 48.4923 43.8123 51.225 43.8359C57.6165 43.8359 61.7775 40.889 61.8268 36.3286C61.8511 33.8262 60.2233 31.9087 56.7138 30.3418C54.5833 29.336 53.2786 28.6578 53.2786 27.6287C53.3036 26.6931 54.3821 25.7348 56.7871 25.7348C58.7673 25.6879 60.2223 26.1321 61.3245 26.5765L61.8755 26.81L62.7039 22.0631V22.0631V22.0631Z" fill="#15195A"/>
<path fill-rule="evenodd" clip-rule="evenodd" d="M73.6073 21.5256H78.3189L83.2331 43.5079H77.5931C77.5931 43.5079 77.0412 40.9822 76.8663 40.2104H69.0455C68.8193 40.7948 67.7671 43.5079 67.7671 43.5079H61.3756L70.4235 23.3495C71.0504 21.9229 72.1543 21.5256 73.6073 21.5256ZM73.2318 29.5701C73.2318 29.5701 71.3016 34.4578 70.7999 35.7206H75.863C75.6125 34.6216 74.459 29.3596 74.459 29.3596L74.0333 27.4655C73.854 27.9532 73.5948 28.6238 73.4199 29.0761C73.3014 29.3827 73.2216 29.589 73.2318 29.5701Z" fill="#15195A"/>
<path fill-rule="evenodd" clip-rule="evenodd" d="M23.4779 36.5157L29.4433 21.5256H35.8844L26.3098 43.485H19.8684L14.4392 24.384C12.566 23.3621 10.4281 22.5402 8.03784 21.9698L8.1381 21.5256H17.9385C19.2669 21.572 20.3448 21.9695 20.6955 23.3735L22.8255 33.4739C22.8256 33.4745 22.8258 33.475 22.826 33.4755L23.4779 36.5157Z" fill="#15195A"/>
</svg>
